<?xml version="1.0" standalone="no"?>
<!DOCTYPE svg PUBLIC "-//W3C//DTD SVG 20010904//EN" "http://www.w3.org/TR/2001/REC-SVG-20010904/DTD/svg10.dtd">
<svg version="1.0" xmlns="http://www.w3.org/2000/svg" width="700pt" height="700pt" viewBox="0 0 700 700" preserveAspectRatio="xMidYMid meet">
  <g transform="translate(0.000000,700.000000) scale(0.100000,-0.100000)" fill="#000000" stroke="none">
    <path d="M1521 6299 c-99 -89 -107 -103 -107 -179 0 -70 29 -132 89 -189 l34
    -33 -284 -318 c-156 -175 -286 -325 -289 -333 -3 -8 -3 -35 0 -60 7 -53 38
    -104 86 -144 48 -39 89 -53 156 -53 85 0 126 22 191 101 l56 69 201 -224 c111
    -123 206 -231 212 -240 8 -13 -2 -30 -48 -83 -63 -72 -80 -110 -80 -178 0 -66
    29 -129 89 -189 53 -52 99 -76 164 -84 96 -12 99 -10 426 349 166 183 306 334
    312 334 5 0 12 -9 15 -21 3 -12 10 -18 16 -15 15 9 138 -54 184 -95 100 -88
    140 -194 143 -384 4 -190 -4 -244 -60 -440 -26 -93 -56 -190 -67 -216 -10 -26
    -19 -55 -19 -64 0 -15 37 -16 372 -15 l371 0 18 26 c10 14 19 39 19 55 0 22
    -6 32 -27 42 -16 7 -55 43 -88 81 -33 37 -82 91 -109 121 l-49 55 122 127 c67
    71 127 129 133 131 7 1 48 -33 93 -75 44 -43 94 -89 111 -104 l31 -26 371 0
    372 0 0 50 c0 44 -4 53 -27 70 -16 11 -55 47 -88 81 -33 33 -85 91 -114 127
    l-55 67 75 78 c41 42 105 108 141 147 l67 71 -384 0 c-212 0 -385 -4 -385 -8 0
    -4 27 -37 60 -72 33 -35 60 -68 60 -73 0 -5 -14 -24 -32 -42 l-31 -32 -45 47
    c-25 25 -69 71 -98 102 l-54 55 385 0 385 0 0 50 c0 48 -2 51 -62 106 -35 32
    -88 88 -119 125 l-56 68 71 73 c40 41 104 109 144 152 l72 78 -384 0 c-212 0
    -385 -4 -385 -8 0 -4 23 -32 52 -62 28 -30 56 -62 62 -72 10 -16 -2 -33 -78
    -112 l-90 -93 -48 50 c-27 28 -70 73 -98 102 l-50 52 372 0 c301 0 371 3 371
    13 0 8 9 42 20 77 23 74 24 123 5 160 -18 34 -16 34 -408 34 l-358 0 54 55 c30
    31 102 107 161 170 l107 115 -371 0 -371 0 -17 -26 c-10 -14 -19 -39 -19 -55 0
    -22 6 -32 28 -42 59 -27 228 -197 214 -214 -6 -8 -202 -213 -261 -273 -13 -13
    -15 -12 -21 4 -3 10 -12 16 -18 13 -16 -10 -154 57 -204 99 -131 110 -168 225
    -168 519 0 129 4 186 19 245 11 43 26 91 34 107 8 15 15 33 15 39 0 6 -140 10
    -371 10 l-371 0 -17 -25 c-10 -14 -19 -39 -19 -55 0 -22 6 -32 28 -42 15 -8 52
    -35 82 -61 30 -27 82 -77 117 -112 l62 -64 -136 -151 c-76 -84 -154 -170 -175
    -193 l-38 -41 -26 29 c-15 15 -52 54 -83 86 l-56 58 -371 0 -371 0 17 -26 c10
    -14 19 -39 19 -55 0 -22 -6 -32 -27 -42 -16 -7 -55 -43 -88 -81 -33 -37 -83
    -91 -110 -121 l-50 -55 -190 212 c-104 117 -229 257 -276 311 l-87 97 184 204
    c101 111 184 211 184 221 0 52 -107 173 -176 200 -30 12 -59 15 -100 11 -85 -7
    -90 -14 -219 -350 -63 -165 -119 -306 -126 -313 -6 -8 -51 22 -151 97 -198 150
    -278 205 -288 196 -5 -4 -10 -59 -10 -121 0 -110 1 -115 25 -139 14 -14 25 -30
    25 -36 0 -6 -58 -153 -129 -325 -71 -173 -131 -321 -134 -328 -10 -26 63 -88
    137 -117 125 -49 235 -31 346 56 30 25 144 135 252 245 l198 200 0 -245 c0
    -230 -1 -246 -21 -275 -20 -29 -20 -32 -5 -55 15 -21 25 -25 75 -25 62 0 93 18
    116 66 9 19 46 44 153 104 l142 81 0 -125 0 -126 38 0 c51 0 95 27 117 71 17
    33 40 54 152 134 l133 95 0 -150 c0 -142 -1 -151 -21 -170 -19 -18 -20 -26 -12
    -56 9 -32 15 -37 58 -48 57 -15 127 -1 154 31 38 44 46 74 39 139 -3 34 -18
    101 -31 150 -14 49 -28 116 -32 149 -3 33 -9 67 -13 75 -5 13 -28 -5 -115 -88
    -58 -55 -108 -101 -110 -103 -2 -1 -3 40 -2 91 l3 94 -45 12 c-25 7 -56 13 -70
    13 -19 0 -81 -29 -207 -97 -98 -53 -182 -95 -188 -93 -5 2 -9 100 -9 217 l-1
    214 -62 -60 c-35 -33 -179 -177 -320 -321 -142 -144 -261 -260 -265 -258 -5 2
    52 147 125 324 73 176 132 325 132 331 0 6 -13 25 -30 43 l-29 33 20 63 c28 87
    118 301 142 339 10 17 24 31 32 31 16 0 50 -23 227 -155 72 -55 139 -99 148
    -97 10 2 66 136 150 358 l133 354 -39 40 c-54 54 -86 113 -94 170 -4 27 -18 68
    -30 92 -12 23 -20 45 -18 48 3 2 53 -28 113 -66 60 -39 158 -101 218 -139 61
    -38 131 -87 156 -110 42 -37 267 -278 609 -651 79 -87 146 -159 151 -159 4 0
    44 18 89 40 98 48 158 61 265 60 177 -2 305 -57 413 -177 121 -134 162 -256
    147 -438 -15 -176 -93 -333 -253 -511 -116 -129 -293 -276 -447 -373 -44 -27
    -89 -58 -101 -68 -11 -10 -28 -18 -37 -18 -9 0 -79 47 -156 104 -77 58 -143
    106 -145 106 -3 0 -85 -57 -183 -126 -97 -69 -196 -137 -220 -150 l-42 -24
    -162 121 c-178 133 -213 151 -300 159 -71 6 -147 -18 -209 -65 -46 -35 -71 -72
    -92 -135 -17 -50 -17 -53 1 -108 38 -115 87 -168 402 -432 164 -137 324 -272
    356 -300 l57 -50 -14 -87 c-8 -49 -12 -129 -10 -180 3 -51 8 -96 10 -98 2 -3
    80 21 174 52 l170 57 0 -184 c0 -167 2 -189 20 -225 43 -81 142 -118 221 -82
    80 36 142 134 153 241 3 28 1 52 -4 52 -4 0 -41 -12 -81 -26 -72 -26 -71 -26
    -79 -5 -45 111 -49 129 -53 199 l-5 75 140 47 c77 27 159 50 183 53 l44 5 -22
    58 c-15 37 -39 71 -68 100 -24 25 -136 122 -248 216 -112 94 -221 187 -242 206
    -22 19 -69 58 -105 88 -36 29 -87 73 -114 97 -27 23 -54 42 -59 42 -6 0 -11 4
    -11 9 0 11 122 86 209 128 65 32 77 35 165 35 92 0 98 -2 173 -40 43 -22 120
    -69 173 -104 82 -56 111 -70 212 -99 254 -75 468 -29 636 137 124 122 192 269
    205 444 19 254 -100 473 -334 614 -91 55 -193 91 -272 96 -36 2 -75 9 -88 14
    -32 14 -29 1 12 -48 45 -55 89 -161 97 -233 3 -33 10 -68 14 -77 5 -13 -4 -33
    -33 -72 -236 -313 -311 -427 -304 -462 3 -13 40 -66 82 -117 43 -51 93 -113
    112 -137 l35 -43 282 0 c214 -1 285 2 292 12 6 7 15 29 21 50 l10 37 -89 107
    c-49 59 -88 108 -86 110 2 1 52 67 110 146 59 79 107 146 107 149 0 3 -130 5
    -290 5 -159 0 -290 3 -290 6 0 3 33 48 74 99 41 51 98 124 127 161 29 38 56 68
    60 68 4 0 45 -49 91 -108 l84 -108 328 0 c180 0 330 3 334 8 2 4 -92 134 -212
    290 -119 155 -216 286 -216 291 0 5 56 86 124 181 89 124 123 178 118 191 -4
    10 -12 19 -17 19 -5 0 -73 -60 -152 -134 l-143 -134 -173 225 c-288 374 -419
    542 -578 738 -209 259 -307 375 -319 375 -5 0 -29 -18 -53 -41z m1732 -4016
    c149 -74 267 -137 263 -141 -7 -6 -333 -119 -368 -127 -8 -2 -11 37 -10 128 1
    70 4 127 8 127 4 0 52 -44 107 -97 55 -54 106 -98 115 -98 14 0 36 26 106 124
    10 14 22 31 28 38 5 7 -24 40 -79 93 -48 45 -92 87 -98 93 -5 6 3 18 22 32 17
    12 39 30 49 40 32 31 38 25 340 -123 156 -76 284 -141 285 -144 4 -15 -136 -69
    -274 -106 -53 -14 -98 -25 -100 -23 -2 1 -28 24 -59 49 -96 80 -378 355 -378
    369 0 11 -6 16 -16 15 -16 -2 -16 -1 0 16 17 17 17 17 -19 17 -31 0 -70 19 -60
    29 9 10 242 300 245 304 2 3 11 -1 20 -10 9 -8 145 -79 302 -156z"/>
  </g>
</svg>
